<?xml version="1.0" encoding="UTF-8"?>
<svg id="_레이어_2" xmlns="http://www.w3.org/2000/svg" version="1.1" viewBox="0 0 309 85.3">
  <!-- Generator: Adobe Illustrator 29.1.0, SVG Export Plug-In . SVG Version: 2.1.0 Build 142)  -->
  <defs>
    <style>
      .st0 {
        fill: #fff;
      }
    </style>
  </defs>
  <g id="_레이어_1-2">
    <g>
      <path class="st0" d="M13.5,2.9h24.3l2.7,2.7v11.1l-2.7,2.7h-20.3v10.8h23v2.9H13.5l-2.7-2.7v-11.2l2.7-2.7h20.3V5.8h-16.3v8.2h-6.6V5.5s2.7-2.7,2.7-2.7Z"/>
      <path class="st0" d="M46.2,2.9h24.3l2.7,2.7v24.7l-2.7,2.7h-24.3l-2.7-2.7V5.5s2.7-2.7,2.7-2.7ZM67.2,5.8h-17.7v24.2h17.7V5.8Z"/>
      <path class="st0" d="M78.8,2.9h24.3l2.7,2.7v11.1l-2.7,2.7h-20.3v10.8h22.9v2.9h-26.9l-2.7-2.7v-11.2l2.7-2.7h20.3V5.8h-16.3v8.2h-6.7V5.5s2.7-2.7,2.7-2.7Z"/>
      <path class="st0" d="M138.4,21.6v2.9h-6.4v8.4h-5.9v-8.4h-17.3v-2.9L126.2,2.9h5.9v18.7h6.4,0ZM126.2,7.1l-13.4,14.5h13.4V7.1Z"/>
      <path class="st0" d="M150.5,32.3c-.2-.3-.3-.6-.4-1,0-.3,0-.6,0-.7l6.1-23.5c.1-.4.3-.7.5-.9s.6-.4.9-.4l5.4-.7c.4,0,.7,0,1,.2.3.2.6.4.7.8l11.2,21.6c.1.3.2.6.2.7,0,.4,0,.7-.2,1.1-.1.3-.3.5-.5.7-.2.2-.5.3-.8.3l-6,.7c-.4,0-.7,0-1-.2s-.6-.5-.7-.8l-1.4-2.7-5.5.6-.7,3c-.1.4-.3.7-.6.9s-.6.4-.9.4l-5.9.7c-.6,0-1.1-.2-1.6-.7h0ZM163.8,20.4c.1-.2.2-.4.1-.6,0-.1,0-.2,0-.2l-1.3-3c-.1-.2-.2-.4-.4-.4s-.3-.1-.5,0c-.4,0-.7.3-.8.7l-.6,3.2v.3c0,.2.1.4.2.5.2.2.5.3.8.3l1.8-.2c.3,0,.6-.2.7-.4h0Z"/>
      <path class="st0" d="M173.3,32.4c-.3-.5-.5-1.1-.4-1.7l3.1-27c0-.6.3-1.2.8-1.6.5-.4,1-.6,1.6-.5l11.5,1.3c4.1.5,7.1,2,9,4.6,1.6,2.2,2.2,5,1.8,8.4-.2,1.9-.8,3.6-1.6,5.1-.9,1.5-2.1,2.6-3.5,3.5l3.7,7.9c.2.3.3.8.2,1.3,0,.4-.2.8-.3,1.1-.2.3-.5.6-.9.8s-.7.2-1.1.2l-7.8-.9c-.7,0-1.2-.5-1.6-1.2l-3.3-7.3-.6,5.5c0,.7-.3,1.2-.8,1.6-.5.4-1,.6-1.6.5l-6.7-.8c-.6,0-1-.4-1.4-.8h0ZM190.6,17.2c.5-.6.9-1.2.9-1.9.1-.7,0-1.4-.5-2.1-.4-.7-1.3-1.1-2.7-1.3l-2.5-.3c-.5,0-1,0-1.5.4s-.7.8-.8,1.3l-.2,2c0,.6.1,1.1.5,1.5.4.4.8.7,1.3.7l2.5.3c1.4.1,2.4,0,3-.7h0Z"/>
      <path class="st0" d="M203.6,28.3c-2-1.6-3.6-3.7-4.6-6.2-1-2.5-1.3-5.2-1-8.1.3-2.9,1.3-5.4,2.8-7.6s3.5-3.9,5.9-5c2.4-1.1,4.9-1.5,7.5-1.2,2.6.3,5,1.3,7,2.9,2,1.6,3.6,3.7,4.6,6.2s1.3,5.2,1,8.1c-.3,2.9-1.3,5.4-2.8,7.6s-3.5,3.9-5.9,5-4.9,1.5-7.5,1.2c-2.6-.3-5-1.3-7-2.9h0ZM214.1,19.4c1-1.1,1.7-2.3,2.2-3.7.3-.9.4-1.8.3-2.6-.1-.8-.4-1.4-.8-1.8-.4-.5-.9-.8-1.6-.9h-.1c-1-.3-2-.2-2.9.3-.9.5-1.5,1.3-1.9,2.5-.2.7-.4,1.6-.6,2.6-.1,1,0,1.9.2,2.8.3.9.9,1.5,1.8,1.8,1.2.4,2.4.1,3.4-1h0Z"/>
      <path class="st0" d="M225.9,32.3c-.2-.3-.3-.6-.4-1,0-.3,0-.6,0-.7l6.1-23.5c.1-.4.3-.7.5-.9s.6-.4.9-.4l5.4-.7c.4,0,.7,0,1,.2.3.2.6.4.7.8l11.2,21.6c.1.3.2.6.2.7,0,.4,0,.7-.2,1.1-.1.3-.3.5-.5.7-.2.2-.5.3-.8.3l-6,.7c-.4,0-.7,0-1-.2s-.6-.5-.7-.8l-1.4-2.7-5.5.6-.7,3c-.1.4-.3.7-.6.9s-.6.4-.9.4l-5.9.7c-.6,0-1.1-.2-1.6-.7h0ZM239.1,20.4c.1-.2.2-.4.1-.6,0-.1,0-.2,0-.2l-1.3-3c-.1-.2-.2-.4-.4-.4s-.3-.1-.5,0c-.4,0-.7.3-.8.7l-.6,3.2v.3c0,.2.1.4.2.5.2.2.5.3.8.3l1.8-.2c.3,0,.6-.2.7-.4h0Z"/>
      <path class="st0" d="M248.7,32.4c-.3-.5-.5-1.1-.4-1.7l3.1-27c0-.6.3-1.2.8-1.6.5-.4,1-.6,1.6-.5l11.5,1.3c4.1.5,7.1,2,9,4.6,1.6,2.2,2.2,5,1.8,8.4-.2,1.9-.8,3.6-1.6,5.1-.9,1.5-2,2.6-3.5,3.5l3.7,7.9c.2.3.3.8.2,1.3,0,.4-.2.8-.3,1.1-.2.3-.5.6-.9.8s-.7.2-1.1.2l-7.8-.9c-.7,0-1.2-.5-1.6-1.2l-3.3-7.3-.6,5.5c0,.7-.3,1.2-.8,1.6-.5.4-1,.6-1.6.5l-6.7-.8c-.6,0-1-.4-1.4-.8h0ZM266,17.2c.5-.6.9-1.2.9-1.9.1-.7,0-1.4-.5-2.1s-1.3-1.1-2.7-1.3l-2.5-.3c-.5,0-1,0-1.5.4s-.7.8-.8,1.3l-.2,2c0,.6.1,1.1.5,1.5.4.4.8.7,1.3.7l2.5.3c1.4.1,2.4,0,3-.7h0Z"/>
      <path class="st0" d="M278.9,28.3c-2-1.6-3.6-3.7-4.6-6.2-1-2.5-1.3-5.2-1-8.1.3-2.9,1.3-5.4,2.8-7.6s3.5-3.9,5.9-5c2.4-1.1,4.9-1.5,7.5-1.2,2.6.3,5,1.3,7,2.9,2,1.6,3.6,3.7,4.6,6.2s1.3,5.2,1,8.1c-.3,2.9-1.3,5.4-2.8,7.6s-3.5,3.9-5.9,5-4.9,1.5-7.5,1.2c-2.6-.3-5-1.3-7-2.9h0ZM289.5,19.4c1-1.1,1.7-2.3,2.2-3.7.3-.9.4-1.8.3-2.6-.1-.8-.4-1.4-.8-1.8s-1-.8-1.6-.9h-.1c-1-.3-2-.2-2.9.3-.9.5-1.5,1.3-1.9,2.5-.2.7-.4,1.6-.5,2.6-.1,1,0,1.9.2,2.8.3.9.9,1.5,1.8,1.8,1.2.4,2.4.1,3.4-1h0Z"/>
      <path class="st0" d="M0,83.4v-39.1h24.7c11.2,0,15.9,3.4,15.9,9.9s-1.9,6.8-5.6,8.6c4.8,1.7,7.6,5.4,7.6,9.7,0,7.5-4.3,11-17.9,11h-7.7l-1.4-11.4h7.4c3.2,0,4.5-.8,4.5-2.3s-1.3-2.3-4.5-2.3h-7.9v16.1H0ZM22.8,59.2c2.5,0,3.7-.8,3.7-2.1s-1.2-2.1-3.7-2.1h-7.6v4.2h7.6Z"/>
      <path class="st0" d="M59.2,56.2v2.8h19.6v9.3h-19.6v2.8h20.3v12.3h-35.4v-39.1h35.2v11.9h-20,0Z"/>
      <path class="st0" d="M102.3,71.6c4.3,0,5.2-.3,5.2-1.4s-1-1.4-4.4-1.4c-15.2,0-22.2-3.8-22.2-12.4s7.9-13,23.4-13,13.7,1.1,19.6,3.3l-1.3,11.9c-7.3-2.1-13.1-2.6-18.7-2.6s-5.1.3-5.1,1.4,1.2,1.4,4.1,1.4c16.3,0,22.6,3.8,22.6,12.4s-6.7,13.2-20.3,13.2-17.1-1.1-23.9-3.7l1.4-12.3c7.5,2.6,13.9,3.2,19.8,3.2h0Z"/>
      <path class="st0" d="M137.7,83.4v-25.2h-11.2v-14h38.2v14h-11.2v25.2h-15.9Z"/>
      <path class="st0" d="M176.3,48.6h1.8v-2h1.8v-1.9h1.7v-1.9h9.5v1.9h1.8v1.9h1.8v2h1.8v29.4h-1.8v2h-1.8v1.9h-1.8v1.9h-9.5v-1.9h-1.7v-1.9h-1.8v-2h-1.8s0-29.4,0-29.4ZM188.7,53h-1.2v-1.5h-2.2v1.5h-1.1v20.7h1.1v1.5h2.2v-1.5h1.2v-20.7ZM205.4,83.4v1.9h-5.1v-1.9h-1.7v-38.7h1.7v-1.9h5.1v1.9h1.7v13.5h2.4v-13.5h1.7v-1.9h5.2v1.9h1.7v38.7h-1.7v1.9h-5.2v-1.9h-1.7v-16.3h-2.4v16.3h-1.7Z"/>
      <path class="st0" d="M224.5,83.5v-1.9h-1.9v-36.9h1.9v-1.9h6.7v1.9h1.9v29.9h12.8v1.9h1.9v5.2h-1.9v1.9h-21.3ZM260.7,42.8v1.9h1.8v38.7h-1.8v1.9h-6.7v-1.9h-1.8v-38.7h1.8v-1.9h6.7Z"/>
      <path class="st0" d="M267.1,61.3h1.6v-1.6h14.2v-2.8h2.2v-1.5h6v1.5h2.2v2.8h14.2v1.6h1.6v4.2h-1.6v1.6h-38.8v-1.6h-1.6v-4.2ZM273.4,68.9h29.4v1.4h1.8v1.5h1.7v1.8h1.5v6.9h-1.5v1.8h-1.7v1.5h-1.8v1.4h-29.4v-1.4h-1.8v-1.5h-1.7v-1.8h-1.5v-6.9h1.5v-1.8h1.7v-1.5h1.8v-1.4h0ZM289.5,51.6h-3v1.3h-2.6v1.5h-2.8v1.7h-2.8v1.6h-7.5v-1.6h-2.3v-4.4h2.3v-1.6h3.2v-1.4h3.1v-1.4h2.7v-1.4h2.5v-3h2.1v-1.2h7.2v1.2h2v3h2.5v1.4h2.7v1.4h3.1v1.4h3.2v1.6h2.3v4.4h-2.3v1.6h-7.5v-1.6h-2.8v-1.7h-2.8v-1.5h-2.6v-1.3h0ZM295.9,79.1v-1.3h1.6v-1.3h-1.6v-1.3h-15.7v1.3h-1.6v1.3h1.6v1.3h15.7Z"/>
    </g>
  </g>
</svg>